inDegrees=no
num_controls=7
num_derivatives=13
num_iterations=150
num_multipliers=7
num_parameters=0
num_slacks=7
num_states=26
objective=0.515121
objective_accelerations=0.039099
objective_balance=0.001924
objective_effort=0.043483
objective_height=0.418960
objective_ligament=0.011655
solver_duration=1927.995216
status=Solve_Succeeded
success=true
DataType=double
version=3
OpenSimVersion=4.5
endheader
time	/jointset/ground_pelvis/pelvis_tilt/value	/jointset/ground_pelvis/pelvis_tx/value	/jointset/ground_pelvis/pelvis_ty/value	/jointset/hip_l/hip_flexion_l/value	/jointset/hip_l/hip_adduction_l/value	/jointset/hip_l/hip_rotation_l/value	/jointset/back/lumbar_extension/value	/jointset/patellofemoral_l/patellar_flexion_l/value	/jointset/knee_l/knee_flexion_l/value	/jointset/knee_l/knee_adduction_l/value	/jointset/knee_l/knee_rotation_l/value	/jointset/ankle_l/ankle_angle_l/value	/jointset/subtalar_l/subtalar_angle_l/value	/jointset/ground_pelvis/pelvis_tilt/speed	/jointset/ground_pelvis/pelvis_tx/speed	/jointset/ground_pelvis/pelvis_ty/speed	/jointset/hip_l/hip_flexion_l/speed	/jointset/hip_l/hip_adduction_l/speed	/jointset/hip_l/hip_rotation_l/speed	/jointset/back/lumbar_extension/speed	/jointset/patellofemoral_l/patellar_flexion_l/speed	/jointset/knee_l/knee_flexion_l/speed	/jointset/knee_l/knee_adduction_l/speed	/jointset/knee_l/knee_rotation_l/speed	/jointset/ankle_l/ankle_angle_l/speed	/jointset/subtalar_l/subtalar_angle_l/speed	/forceset/tau_hip_flexion_l	/forceset/tau_hip_adduction_l	/forceset/tau_hip_rotation_l	/forceset/tau_knee_flexion_l	/forceset/tau_ankle_angle_l	/forceset/tau_subtalar_angle_l	/forceset/tau_lumbar_extension	lambda_cid13_p0	lambda_cid13_p1	lambda_cid13_p2	lambda_cid13_p3	lambda_cid13_p4	lambda_cid13_p5	lambda_cid14_p0	/jointset/ground_pelvis/pelvis_tilt/accel	/jointset/ground_pelvis/pelvis_tx/accel	/jointset/ground_pelvis/pelvis_ty/accel	/jointset/hip_l/hip_flexion_l/accel	/jointset/hip_l/hip_adduction_l/accel	/jointset/hip_l/hip_rotation_l/accel	/jointset/back/lumbar_extension/accel	/jointset/patellofemoral_l/patellar_flexion_l/accel	/jointset/knee_l/knee_flexion_l/accel	/jointset/knee_l/knee_adduction_l/accel	/jointset/knee_l/knee_rotation_l/accel	/jointset/ankle_l/ankle_angle_l/accel	/jointset/subtalar_l/subtalar_angle_l/accel	gamma_cid13_p0	gamma_cid13_p1	gamma_cid13_p2	gamma_cid13_p3	gamma_cid13_p4	gamma_cid13_p5	gamma_cid14_p0
0.5	-0.1191747029342764	-0.05621217039648187	0.8258645292617907	0.8851586178458628	-0.3239230360115377	-0.1249826757899838	-0.7785450797523883	0.7799854781437382	0.7799854781437225	-0.1107656892962342	-0.1745305641693708	0.06736588212974325	-0.008376334778742466	-0.2017930560440281	-0.2063747999301979	-0.3337930422577372	1.475204859789257	-0.04157521783569845	0.4529805407908816	-0.8399164926615605	1.418203864900595	1.418203864900625	0.1294582376186263	2.90761564088129e-05	0.2347067185640305	0.02886148205612251	-0.2811303599145666	0.02061702978011272	-0.003060711172757677	-0.2092694549692369	0.1165043337048415	0.04929193079927766	0.3295659175265684	-7.161955856948961	-21.61332680950176	4.658945430147114	-9.726845487469564	-703.3797745771008	-76.97559989912131	-15.20453902358427	0.2922582388946739	0.6513280969512628	-0.1150735663889918	-1.418099131719933	0.2220091319365519	-0.3306924407791805	1.69479370374729	-1.04369590449481	-1.04369590449479	-0.2682708874997051	0.02581039900010151	0.04110887095352193	0.256165224650925	-3.464688168972865e-08	-5.251676332223488e-07	-5.730486072126285e-08	-7.472311709325174e-08	-6.210765738347945e-08	-4.998243067941664e-08	-6.804425363333077e-08
0.51	-0.1211777916953434	-0.05824324595342698	0.822521563602427	0.8998376585323705	-0.3243280022057394	-0.1204710059595762	-0.7868585478798893	0.7941131336050189	0.7941131336050877	-0.1094845955027636	-0.1745301178109098	0.0697143379304086	-0.008075434416103134	-0.1987966129545725	-0.199830204408408	-0.3347257200258655	1.460397951920725	-0.03941672447784261	0.4492764662594695	-0.822686015134833	1.407115475978006	1.407115475977974	0.1267700178371589	4.782350760827569e-05	0.2349362461592684	0.03130677913096019	-0.2875052977477599	0.02100708054198215	-0.003260136878383634	-0.2117418463080789	0.1167518350713211	0.04967252307091386	0.3357012764046687	-7.30092693204496	-21.70923327700282	4.622775418922026	-9.752707493162541	-707.2293172878341	-76.85818651842214	-14.68995567262533	0.3075478730705368	0.6575269267104793	-0.07122111151978099	-1.542787134762462	0.2130351567503996	-0.4018666550909438	1.750842432693402	-1.173159816632942	-1.173159816642275	-0.2677649020212922	-0.01194634206115806	0.006627066622595767	0.2370252727418771	-5.379757331342199e-08	-4.192630001183174e-07	1.03326171204102e-07	-4.548325345785137e-08	-7.319340862047982e-08	-4.129503516530084e-08	-7.478417006621984e-08
0.52	-0.1231500739196957	-0.06020857522577062	0.8191714999194831	0.9143624700361243	-0.3247113303225548	-0.1159986972136377	-0.7949969777010113	0.8081235552909726	0.8081235552911304	-0.1082301173828096	-0.1745298546279909	0.07206363947958887	-0.007750418417947089	-0.1956317487011365	-0.1932255430099067	-0.3352126469737947	1.444359023238491	-0.03724760235837297	0.4451083238973074	-0.8049088313857904	1.394757109835741	1.394757109835646	0.1241351029136491	-7.558950833010886e-06	0.2348758682670535	0.03368460915946522	-0.293880235580956	0.0213971313038469	-0.003459562583956491	-0.2142142376469237	0.1169993364377993	0.05005311534254463	0.3418366352827678	-7.443002651913175	-21.80544350419042	4.587621701515492	-9.804274727821417	-711.1496812444987	-76.75971632617781	-14.17239294950733	0.3259424716907081	0.6633412722935529	-0.02592340234916111	-1.664503294460266	0.2241348842593097	-0.4235060069291721	1.804134948210248	-1.297691348429833	-1.297691348429815	-0.257609915908158	0.01098443707194482	-0.01687222653702912	0.2426718153843987	-9.294821144486756e-08	-2.564911999831593e-07	4.039892770092218e-07	8.199198890860612e-09	-1.032046931285397e-07	-2.941608710064103e-08	-9.17629935055211e-08
0.53	-0.1250898421966661	-0.06210762177277613	0.8158188064158183	0.9287207488870381	-0.325073138211013	-0.1115689266769139	-0.8029550598240182	0.8220040600106344	0.8220040600106601	-0.1070029772946882	-0.1745296154350233	0.07441083084741859	-0.007402246589514869	-0.192292482730505	-0.1865803231094115	-0.3352501682027623	1.427096567446765	-0.0351173333970966	0.4407794880010396	-0.7866312673641299	1.381138376206955	1.381138376206905	0.1212918247262023	4.592156698244927e-05	0.2345131411065217	0.03593222443536596	-0.3001089790944885	0.02172574557593429	-0.003664427614548671	-0.2165932255775356	0.1169694711795229	0.05040160444542886	0.3477830315173305	-7.671995213999254	-21.87279059380276	4.548206336412153	-9.711777706974743	-714.9672687824882	-76.62886116092858	-13.65246764041018	0.3423202957662422	0.6656361204265216	0.01869255665455768	-1.787158489903121	0.2069138016687838	-0.4476109058279252	1.851016006849978	-1.42476291733693	-1.424762917330171	-0.2978628232091952	0.001222231025974996	-0.05336632056837638	0.2131382734220695	-1.121157619208843e-07	-1.466972612666979e-07	5.706585837806628e-07	3.974280306728394e-08	-1.155254420200332e-07	-1.691174995999747e-08	-9.842401489271308e-08
